<svg width="40" height="40" viewBox="0 0 40 40" fill="none" xmlns="http://www.w3.org/2000/svg">
<path d="M19.9987 12.295C17.9547 12.295 15.9945 13.107 14.5492 14.5522C13.1039 15.9975 12.292 17.9577 12.292 20.0017C12.292 22.0456 13.1039 24.0058 14.5492 25.4511C15.9945 26.8964 17.9547 27.7083 19.9987 27.7083C22.0426 27.7083 24.0028 26.8964 25.4481 25.4511C26.8934 24.0058 27.7053 22.0456 27.7053 20.0017C27.7053 17.9577 26.8934 15.9975 25.4481 14.5522C24.0028 13.107 22.0426 12.295 19.9987 12.295ZM19.9987 25.0067C18.6708 25.0067 17.3973 24.4792 16.4584 23.5403C15.5195 22.6013 14.992 21.3279 14.992 20C14.992 18.6722 15.5195 17.3987 16.4584 16.4598C17.3973 15.5208 18.6708 14.9933 19.9987 14.9933C21.3265 14.9933 22.6 15.5208 23.5389 16.4598C24.4778 17.3987 25.0053 18.6722 25.0053 20C25.0053 21.3279 24.4778 22.6013 23.5389 23.5403C22.6 24.4792 21.3265 25.0067 19.9987 25.0067Z" fill="white"/>
<path d="M28.0096 13.8083C29.0018 13.8083 29.8062 13.0039 29.8062 12.0117C29.8062 11.0194 29.0018 10.215 28.0096 10.215C27.0173 10.215 26.2129 11.0194 26.2129 12.0117C26.2129 13.0039 27.0173 13.8083 28.0096 13.8083Z" fill="white"/>
<path d="M34.2213 10.185C33.8354 9.18863 33.2458 8.2838 32.4902 7.52843C31.7345 6.77306 30.8294 6.18378 29.8329 5.79833C28.6668 5.36059 27.4349 5.1239 26.1896 5.09833C24.5846 5.02833 24.0763 5.00833 20.0063 5.00833C15.9363 5.00833 15.4146 5.00833 13.8229 5.09833C12.5786 5.12259 11.3475 5.35933 10.1829 5.79833C9.18616 6.18333 8.28087 6.77245 7.52515 7.52788C6.76944 8.28331 6.17998 9.18837 5.7946 10.185C5.35677 11.351 5.12062 12.5831 5.09626 13.8283C5.0246 15.4317 5.00293 15.94 5.00293 20.0117C5.00293 24.0817 5.00293 24.6 5.09626 26.195C5.12126 27.4417 5.35626 28.6717 5.7946 29.84C6.18106 30.8363 6.77109 31.741 7.52699 32.4963C8.28289 33.2516 9.18804 33.841 10.1846 34.2267C11.347 34.682 12.5785 34.9356 13.8263 34.9767C15.4313 35.0467 15.9396 35.0683 20.0096 35.0683C24.0796 35.0683 24.6013 35.0683 26.1929 34.9767C27.4381 34.9513 28.67 34.7152 29.8363 34.2783C30.8325 33.892 31.7373 33.3022 32.4929 32.5466C33.2485 31.791 33.8382 30.8863 34.2246 29.89C34.6629 28.7233 34.8979 27.4933 34.9229 26.2467C34.9946 24.6433 35.0163 24.135 35.0163 20.0633C35.0163 15.9917 35.0163 15.475 34.9229 13.88C34.9035 12.6171 34.6662 11.3671 34.2213 10.185ZM32.1913 26.0717C32.1805 27.0322 32.0052 27.9837 31.6729 28.885C31.4226 29.5331 31.0395 30.1217 30.548 30.6128C30.0566 31.1039 29.4679 31.4868 28.8196 31.7367C27.9283 32.0674 26.9869 32.2427 26.0363 32.255C24.4529 32.3283 24.0063 32.3467 19.9463 32.3467C15.8829 32.3467 15.4679 32.3467 13.8546 32.255C12.9045 32.2434 11.9635 32.068 11.0729 31.7367C10.4224 31.4883 9.83127 31.1062 9.33775 30.6149C8.84423 30.1237 8.45932 29.5344 8.20793 28.885C7.88034 27.9934 7.70512 27.0531 7.6896 26.1033C7.61793 24.52 7.60126 24.0733 7.60126 20.0133C7.60126 15.9517 7.60126 15.5367 7.6896 13.9217C7.70037 12.9617 7.87569 12.0107 8.20793 11.11C8.71626 9.795 9.75793 8.76 11.0729 8.25666C11.9639 7.9269 12.9046 7.7516 13.8546 7.73833C15.4396 7.66666 15.8846 7.64666 19.9463 7.64666C24.0079 7.64666 24.4246 7.64666 26.0363 7.73833C26.9869 7.74977 27.9285 7.92512 28.8196 8.25666C29.4678 8.50712 30.0565 8.89033 30.5479 9.38171C31.0393 9.8731 31.4225 10.4618 31.6729 11.11C32.0005 12.0016 32.1757 12.9419 32.1913 13.8917C32.2629 15.4767 32.2813 15.9217 32.2813 19.9833C32.2813 24.0433 32.2813 24.48 32.2096 26.0733H32.1913V26.0717Z" fill="white"/>
</svg>
