<svg width="180" height="90" viewBox="0 0 180 90" fill="none" xmlns="http://www.w3.org/2000/svg">
<path d="M123.34 23.6465C123.34 26.8557 122.788 29.8772 121.666 32.4548C120.665 34.8617 119.233 36.9442 117.37 38.7366C110.64 45.1379 100.615 45.5135 98.4927 45.5135H77.5625V1.71132H98.1131C99.2347 1.71132 110.14 1.59183 117.301 8.3687C119.164 10.1611 120.665 12.2436 121.666 14.6505C122.788 17.2964 123.34 20.3178 123.34 23.6465ZM116.49 23.6465C116.49 21.2396 116.11 19.0888 115.299 17.2964C114.678 15.7601 113.746 14.3433 112.556 13.2337C109.812 10.639 106.137 9.47826 103.462 8.98323C100.529 8.41991 98.3547 8.48819 98.2857 8.48819H85.6378V38.7366H98.2857C98.5272 38.7366 107.379 38.8561 112.607 33.8716C113.798 32.6937 114.73 31.3452 115.351 29.8601C116.11 28.0848 116.49 25.9851 116.49 23.6465Z" fill="white"/>
<path d="M171.896 1.71118V10.9124V24.9617V25.5592C171.896 25.5933 171.896 25.6445 171.896 25.6787C171.896 26.9931 171.862 28.3076 171.655 29.5879C171.5 30.4756 171.258 31.3462 170.931 32.1827C170.896 32.251 170.879 32.3192 170.845 32.3875C170.672 32.8143 170.482 33.2411 170.276 33.6508C169.758 34.6068 169.155 35.5286 168.379 36.2797C167.327 37.3552 166.086 38.1916 164.637 38.755C163.12 39.3524 161.344 39.6597 159.396 39.6768H154.81C152.844 39.6768 151.085 39.3524 149.568 38.755C148.12 38.1916 146.878 37.3552 145.826 36.2797C145.068 35.5286 144.464 34.6068 143.93 33.6508C143.723 33.2411 143.533 32.8314 143.361 32.3875C143.326 32.3192 143.309 32.251 143.275 32.1656C142.964 31.3291 142.706 30.4585 142.551 29.5708C142.344 28.2905 142.309 26.9761 142.309 25.6616C142.309 25.6275 142.309 25.5763 142.309 25.5421V24.9617V10.9124V1.71118H134.223V23.4595C134.223 25.8665 134.223 28.2734 134.602 30.6122C134.981 32.8314 135.723 34.9823 136.723 36.8942C137.533 38.3794 138.464 39.7963 139.654 40.9571C141.275 42.613 143.206 43.9104 145.447 44.781C147.809 45.7028 150.534 46.1979 153.568 46.1979H160.655C163.689 46.1979 166.413 45.7028 168.775 44.781C171.017 43.9104 172.948 42.6301 174.569 40.9571C175.758 39.7792 176.69 38.3623 177.5 36.8942C178.5 34.9823 179.241 32.8314 179.621 30.6122C180 28.2734 180 25.8665 180 23.4595V1.71118H171.896Z" fill="white"/>
<path d="M57.5578 45.5133H66.5066L35.7214 0L5.00952 45.5133H13.9022L21.5726 34.1733H49.8875L57.5578 45.5133ZM26.2198 27.2773L35.7214 13.23L45.223 27.2773H26.2198Z" fill="white"/>
<path d="M82.0067 76.4458V45.5134H77.5623L52 83.223H75.7982V90.0001H82.0067V83.223H86.2718L90.8636 76.4458H82.0067ZM75.7982 76.4458H63.9487L75.7982 58.7092V76.4458Z" fill="#FDC500"/>
<path d="M44.482 66.005C46.2226 62.9287 46.7224 59.7669 46.0331 56.6223C45.3437 53.358 43.2928 50.3842 40.3112 48.3505C37.6399 46.5559 34.3309 45.5134 31.1081 45.5134C30.9874 45.5134 30.8496 45.5305 30.7289 45.5305V45.5134H5.0096L0 52.9136H30.7289H31.1081C32.8487 52.9136 34.6584 53.4605 36.0888 54.4518C37.0884 55.1354 38.3293 56.2976 38.7601 58.1604C39.1565 60.16 38.3293 61.9716 37.1918 63.5781C37.0712 63.749 36.9505 63.9199 36.8299 64.0909L19.1991 90.0001H47.498L51.9962 83.2152H33.159L44.482 66.005Z" fill="#FDC500"/>
<path d="M128.177 78.5362C134.187 78.5362 139.06 73.7101 139.06 67.7568C139.06 61.8034 134.187 56.9773 128.177 56.9773C122.166 56.9773 117.294 61.8034 117.294 67.7568C117.294 73.7101 122.166 78.5362 128.177 78.5362Z" fill="#FDC500"/>
</svg>
